<svg preserveAspectRatio="none" overflow="visible" style="display: block;" width="32" height="32" viewBox="0 0 32 32" fill="none" xmlns="http://www.w3.org/2000/svg">
<g id="file-text">
<path id="Vector" opacity="0" d="M32 0H0V32H32V0Z" fill="#1877F2"/>
<path id="Vector_2" d="M20 21.3333H12C11.6464 21.3333 11.3072 21.4738 11.0572 21.7239C10.8071 21.9739 10.6667 22.313 10.6667 22.6667C10.6667 23.0203 10.8071 23.3594 11.0572 23.6095C11.3072 23.8595 11.6464 24 12 24H20C20.3536 24 20.6928 23.8595 20.9428 23.6095C21.1929 23.3594 21.3333 23.0203 21.3333 22.6667C21.3333 22.313 21.1929 21.9739 20.9428 21.7239C20.6928 21.4738 20.3536 21.3333 20 21.3333Z" fill="#1877F2"/>
<path id="Vector_3" d="M12 18.6667H16C16.3536 18.6667 16.6928 18.5262 16.9428 18.2761C17.1929 18.0261 17.3333 17.687 17.3333 17.3333C17.3333 16.9797 17.1929 16.6406 16.9428 16.3905C16.6928 16.1405 16.3536 16 16 16H12C11.6464 16 11.3072 16.1405 11.0572 16.3905C10.8071 16.6406 10.6667 16.9797 10.6667 17.3333C10.6667 17.687 10.8071 18.0261 11.0572 18.2761C11.3072 18.5262 11.6464 18.6667 12 18.6667V18.6667Z" fill="#1877F2"/>
<path id="Vector_4" d="M26.32 11.1067L19.0667 3.10667C18.942 2.96854 18.7898 2.85804 18.6199 2.78226C18.45 2.70648 18.2661 2.66711 18.08 2.66667H8.74667C8.30367 2.66138 7.86396 2.74341 7.45267 2.90807C7.04137 3.07274 6.66654 3.3168 6.34958 3.62634C6.03261 3.93587 5.77973 4.30481 5.60536 4.71209C5.43099 5.11936 5.33856 5.557 5.33333 6V26C5.33856 26.443 5.43099 26.8806 5.60536 27.2879C5.77973 27.6952 6.03261 28.0641 6.34958 28.3737C6.66654 28.6832 7.04137 28.9273 7.45267 29.0919C7.86396 29.2566 8.30367 29.3386 8.74667 29.3333H23.2533C23.6963 29.3386 24.136 29.2566 24.5473 29.0919C24.9586 28.9273 25.3335 28.6832 25.6504 28.3737C25.9674 28.0641 26.2203 27.6952 26.3946 27.2879C26.569 26.8806 26.6614 26.443 26.6667 26V12C26.6658 11.6696 26.5423 11.3512 26.32 11.1067V11.1067ZM18.6667 6.66667L22.32 10.6667H19.6533C19.5137 10.6582 19.3772 10.6221 19.2517 10.5603C19.1262 10.4985 19.0142 10.4124 18.9224 10.3069C18.8305 10.2014 18.7606 10.0786 18.7167 9.94583C18.6728 9.81302 18.6558 9.67279 18.6667 9.53333V6.66667ZM23.2533 26.6667H8.74667C8.65383 26.6721 8.56084 26.6591 8.47303 26.6285C8.38522 26.5979 8.30432 26.5503 8.23495 26.4883C8.16558 26.4264 8.10912 26.3514 8.06881 26.2676C8.02849 26.1838 8.00511 26.0928 8 26V6C8.00511 5.90715 8.02849 5.81622 8.06881 5.73242C8.10912 5.64863 8.16558 5.57361 8.23495 5.51168C8.30432 5.44974 8.38522 5.40211 8.47303 5.3715C8.56084 5.3409 8.65383 5.32793 8.74667 5.33333H16V9.53333C15.9785 10.5155 16.3463 11.4663 17.0233 12.1782C17.7002 12.8902 18.6313 13.3054 19.6133 13.3333H24V26C23.9949 26.0928 23.9715 26.1838 23.9312 26.2676C23.8909 26.3514 23.8344 26.4264 23.7651 26.4883C23.6957 26.5503 23.6148 26.5979 23.527 26.6285C23.4392 26.6591 23.3462 26.6721 23.2533 26.6667Z" fill="#1877F2"/>
</g>
</svg>
